# xmcd
#
# Track frame offsets:
#       150
#       20277
#       40043
#       64553
#       84781
#       99828
#       115943
#       136228
#       151622
#       179208
#
# Disc length: 2584 seconds
#
# Revision: 1
# Processed by: cddbd v1.5.2PL0 Copyright (c) Steve Scherf et al.
# Submitted via: FreeDbEdit v0.1
#
DISCID=6b0a160a
DTITLE=Crosby, Stills, Nash and Young - 4 Way Street
DYEAR=1999
DGENRE=A capella
TTITLE0=On the Way Home
TTITLE1=Teach Your Children
TTITLE2=Triad
TTITLE3=The Lee Shore
TTITLE4=Chicago
TTITLE5=Right Between the Eyes
TTITLE6=Cowgirl in the Sand
TTITLE7=Don't Let It Bring You Down
TTITLE8=49 Bye Byes
TTITLE9=Love the One You're With
EXTD=
EXTT0=
EXTT1=
EXTT2=
EXTT3=
EXTT4=
EXTT5=
EXTT6=
EXTT7=
EXTT8=
EXTT9=
PLAYORDER=
